<svg id="visual" viewBox="0 0 900 300" width="900" height="300" xmlns="http://www.w3.org/2000/svg" xmlns:xlink="http://www.w3.org/1999/xlink" version="1.1"><path d="M0 194L25 204.3C50 214.7 100 235.3 150 252.8C200 270.3 250 284.7 300 291.5C350 298.3 400 297.7 450 284.8C500 272 550 247 600 241.3C650 235.7 700 249.3 750 254.2C800 259 850 255 875 253L900 251L900 301L875 301C850 301 800 301 750 301C700 301 650 301 600 301C550 301 500 301 450 301C400 301 350 301 300 301C250 301 200 301 150 301C100 301 50 301 25 301L0 301Z" fill="#8abfd1"></path><path d="M0 293L25 286.2C50 279.3 100 265.7 150 266.2C200 266.7 250 281.3 300 282.3C350 283.3 400 270.7 450 264.8C500 259 550 260 600 253.8C650 247.7 700 234.3 750 231C800 227.7 850 234.3 875 237.7L900 241L900 301L875 301C850 301 800 301 750 301C700 301 650 301 600 301C550 301 500 301 450 301C400 301 350 301 300 301C250 301 200 301 150 301C100 301 50 301 25 301L0 301Z" fill="#eff9fc"></path></svg>