<svg id="visual" viewBox="0 0 900 300" width="900" height="300" xmlns="http://www.w3.org/2000/svg" xmlns:xlink="http://www.w3.org/1999/xlink" version="1.1"><path d="M0 251L25 258.2C50 265.3 100 279.7 150 281C200 282.3 250 270.7 300 262.5C350 254.3 400 249.7 450 240C500 230.3 550 215.7 600 213.2C650 210.7 700 220.3 750 231.3C800 242.3 850 254.7 875 260.8L900 267L900 301L875 301C850 301 800 301 750 301C700 301 650 301 600 301C550 301 500 301 450 301C400 301 350 301 300 301C250 301 200 301 150 301C100 301 50 301 25 301L0 301Z" fill="#8abfd1"></path><path d="M0 223L25 222.5C50 222 100 221 150 227.3C200 233.7 250 247.3 300 252.3C350 257.3 400 253.7 450 248.8C500 244 550 238 600 246C650 254 700 276 750 281.3C800 286.7 850 275.3 875 269.7L900 264L900 301L875 301C850 301 800 301 750 301C700 301 650 301 600 301C550 301 500 301 450 301C400 301 350 301 300 301C250 301 200 301 150 301C100 301 50 301 25 301L0 301Z" fill="#eff9fc"></path></svg>