<svg id="visual" viewBox="0 0 900 300" width="900" height="300" xmlns="http://www.w3.org/2000/svg" xmlns:xlink="http://www.w3.org/1999/xlink" version="1.1"><path d="M0 203L25 202.8C50 202.7 100 202.3 150 215.5C200 228.7 250 255.3 300 256.3C350 257.3 400 232.7 450 220.3C500 208 550 208 600 214.8C650 221.7 700 235.3 750 248C800 260.7 850 272.3 875 278.2L900 284L900 301L875 301C850 301 800 301 750 301C700 301 650 301 600 301C550 301 500 301 450 301C400 301 350 301 300 301C250 301 200 301 150 301C100 301 50 301 25 301L0 301Z" fill="#8abfd1"></path><path d="M0 266L25 262.3C50 258.7 100 251.3 150 253C200 254.7 250 265.3 300 263.2C350 261 400 246 450 241C500 236 550 241 600 249.3C650 257.7 700 269.3 750 267.7C800 266 850 251 875 243.5L900 236L900 301L875 301C850 301 800 301 750 301C700 301 650 301 600 301C550 301 500 301 450 301C400 301 350 301 300 301C250 301 200 301 150 301C100 301 50 301 25 301L0 301Z" fill="#eff9fc"></path></svg>